<?xml version="1.0" encoding="UTF-8" standalone="no"?>
<svg
   xmlns:dc="http://purl.org/dc/elements/1.1/"
   xmlns:cc="http://creativecommons.org/ns#"
   xmlns:rdf="http://www.w3.org/1999/02/22-rdf-syntax-ns#"
   xmlns:svg="http://www.w3.org/2000/svg"
   xmlns="http://www.w3.org/2000/svg"
   xmlns:sodipodi="http://sodipodi.sourceforge.net/DTD/sodipodi-0.dtd"
   xmlns:inkscape="http://www.inkscape.org/namespaces/inkscape"
   version="1.1"
   width="90px"
   height="90px"
   viewBox="0 0 90 90"
   id="svg2976"
   inkscape:version="0.47 r22583"
   sodipodi:docname="heart_new.svg">
  <metadata
     id="metadata3090">
    <rdf:RDF>
      <cc:Work
         rdf:about="">
        <dc:format>image/svg+xml</dc:format>
        <dc:type
           rdf:resource="http://purl.org/dc/dcmitype/StillImage" />
        <dc:title></dc:title>
      </cc:Work>
    </rdf:RDF>
  </metadata>
  <defs
     id="defs3088">
    <inkscape:perspective
       sodipodi:type="inkscape:persp3d"
       inkscape:vp_x="0 : 45 : 1"
       inkscape:vp_y="0 : 1000 : 0"
       inkscape:vp_z="90 : 45 : 1"
       inkscape:persp3d-origin="45 : 30 : 1"
       id="perspective3092" />
    <inkscape:perspective
       id="perspective3213"
       inkscape:persp3d-origin="0.5 : 0.33333333 : 1"
       inkscape:vp_z="1 : 0.5 : 1"
       inkscape:vp_y="0 : 1000 : 0"
       inkscape:vp_x="0 : 0.5 : 1"
       sodipodi:type="inkscape:persp3d" />
    <inkscape:perspective
       id="perspective3246"
       inkscape:persp3d-origin="0.5 : 0.33333333 : 1"
       inkscape:vp_z="1 : 0.5 : 1"
       inkscape:vp_y="0 : 1000 : 0"
       inkscape:vp_x="0 : 0.5 : 1"
       sodipodi:type="inkscape:persp3d" />
    <inkscape:perspective
       id="perspective4362"
       inkscape:persp3d-origin="0.5 : 0.33333333 : 1"
       inkscape:vp_z="1 : 0.5 : 1"
       inkscape:vp_y="0 : 1000 : 0"
       inkscape:vp_x="0 : 0.5 : 1"
       sodipodi:type="inkscape:persp3d" />
  </defs>
  <sodipodi:namedview
     pagecolor="#ffffff"
     bordercolor="#666666"
     borderopacity="1"
     objecttolerance="10"
     gridtolerance="10"
     guidetolerance="10"
     inkscape:pageopacity="0"
     inkscape:pageshadow="2"
     inkscape:window-width="1280"
     inkscape:window-height="873"
     id="namedview3086"
     showgrid="false"
     inkscape:zoom="5.6568543"
     inkscape:cx="84.430629"
     inkscape:cy="45.572128"
     inkscape:window-x="0"
     inkscape:window-y="0"
     inkscape:window-maximized="1"
     inkscape:current-layer="svg2976" />
  <path
     style="fill:#000000"
     d="M 20 0 L 20 10 L 10 10 L 10 20 L 0 20 L 0 30 L 0 40 L 0 50 L 10 50 L 10 60 L 20 60 L 20 70 L 30 70 L 30 80 L 40 80 L 40 90 L 50 90 L 50 80 L 60 80 L 60 70 L 70 70 L 70 60 L 80 60 L 80 50 L 90 50 L 90 40 L 90 30 L 90 20 L 80 20 L 80 10 L 70 10 L 70 0 L 60 0 L 50 0 L 50 10 L 40 10 L 40 0 L 30 0 L 20 0 z "
     id="rect3084-3" />
  <path
     style="fill:#ff1313;fill-opacity:1"
     d="M 20 10 L 20 20 L 10 20 L 10 30 L 10 40 L 10 50 L 20 50 L 20 60 L 30 60 L 30 70 L 40 70 L 40 80 L 50 80 L 50 70 L 60 70 L 60 60 L 70 60 L 70 50 L 80 50 L 80 40 L 80 30 L 80 20 L 70 20 L 70 10 L 60 10 L 50 10 L 50 20 L 40 20 L 40 10 L 30 10 L 20 10 z "
     id="rect3076-2" />
  <rect
     x="20"
     y="20"
     width="10"
     height="10"
     fill="#ffc8c8"
     id="rect2998" />
  <path
     style="fill:#bb1313"
     d="M 10 40 L 10 50 L 20 50 L 20 40 L 10 40 z M 20 50 L 20 60 L 30 60 L 30 50 L 20 50 z M 30 60 L 30 70 L 40 70 L 40 60 L 30 60 z M 40 70 L 40 80 L 50 80 L 50 70 L 40 70 z M 50 70 L 60 70 L 60 60 L 50 60 L 50 70 z M 60 60 L 70 60 L 70 50 L 60 50 L 60 60 z M 70 50 L 80 50 L 80 40 L 70 40 L 70 50 z "
     id="rect3076" />
</svg>
